<svg id="Layer_1" data-name="Layer 1" xmlns="http://www.w3.org/2000/svg" viewBox="0 0 438 511.17"><defs><style>.cls-1{fill:#f15a24;}.cls-2,.cls-4{fill:#dfa270;}.cls-11,.cls-3,.cls-4,.cls-5,.cls-6{stroke:#000;}.cls-3,.cls-4,.cls-5,.cls-6{stroke-miterlimit:10;}.cls-4{stroke-width:2px;}.cls-5{fill:none;}.cls-6{fill:#1a1a1a;}.cls-7{fill:#a67c52;}.cls-8{fill:#42210b;}.cls-9{fill:#fff;}.cls-10{fill:#89684e;}.cls-11{stroke-width:4.47px;}</style></defs><title>Avatar</title><ellipse class="cls-1" cx="219" cy="291.43" rx="219" ry="218.5"/><path class="cls-2" d="M222.47,396.33v.44a82.06,82.06,0,0,1-36-6.33A85.41,85.41,0,0,1,165,377c-4.48-3.65-15.27-13-27-32-7.52-12.16-18.47-33.2-24.53-63.05a13.42,13.42,0,0,1-4-.9c-6.29-2.55-8.26-9.54-10-15.37-7.19-24.16-7.47-18.94-9-28-1.72-10.21-4.72-27.81,1-29.83,4.41-1.57,12.68,5.32,20,15.37-6-36-2-64.56,3-84.08,2.76-10.89,4.72-18.34,10-26.22C147.74,78.12,207,77.43,222.05,77.62Q221.89,158.8,222,240,222.11,318.18,222.47,396.33Z" transform="translate(0 0.43)"/><path class="cls-2" d="M221.13,396.33v.44a82.06,82.06,0,0,0,36-6.33A85.41,85.41,0,0,0,278.6,377c4.48-3.65,15.27-13,27-32,7.52-12.16,18.47-33.2,24.53-63.05a13.42,13.42,0,0,0,4-.9c6.29-2.55,8.26-9.54,10-15.37,7.19-24.16,7.47-18.94,9-28,1.72-10.21,4.72-27.81-1-29.83-4.41-1.57-12.68,5.32-20,15.37,6-36,2-64.56-3-84.08-2.76-10.89-4.72-18.34-10-26.22-23.27-34.77-82.56-35.46-97.58-35.27q.16,81.18,0,162.38Q221.5,318.18,221.13,396.33Z" transform="translate(0 0.43)"/><path class="cls-3" d="M126,207.68c1.59,1.27,5.58-4.47,14-7,2.72-.82,7.41-1.76,26,3s26,8.76,35,5c1.8-.76,4.92-2.06,5-4,.06-1.4-1.38-4.56-36-13-24.45-6-29.42-5.78-34-3C127.3,193.92,123.92,206,126,207.68Z" transform="translate(0 0.43)"/><path id="Hair" class="cls-3" d="M101.5,213.87C91.27,183.65,92,145.55,92,145.55a265.09,265.09,0,0,1,4-44.78,257.52,257.52,0,0,1,14-50l26-30.14s-14,25.84-13,31.87,19-16.37,19-16.37L183,1.72s-28,26.7-23,33.59S237,0,237,0s-39.4,25.25-35.75,30.43A1.63,1.63,0,0,0,202,31c8.11,3.51,49.32-9,71.53-11.77,37.68-4.68,67.42,12.51,67.63,11.89S320,21.39,293.5,23.53c-15.52,1.26-30.33,6.51-30,8.61.24,1.56,8.91,2.38,45-.64a55.55,55.55,0,0,1,20,5A57.52,57.52,0,0,1,354,60.29c-2.48-3-10.65-12.24-24.47-14.79-5.08-.94-15.57-1.91-16.53,1-1.37,4.18,18.9,10,39.53,29,16.28,15,26.14,32,25,33-.6.52-3.88-3.74-13.53-10.66,0,0-5.25-5.36-24-13.44-8-3.44,11,4.31,20,30.15s14,43.06,14,43.06c-13.76-30.07-18.39-35.88-20-35.31-2,.69,1.72,10.52.53,28.2-.73,10.89-3,19.94-5,28-.81,3.24-1.94,7.45-6,20-7.62,23.55-11.43,35.32-13,35-2.08-.43,3.62-19.41,0-46-1.77-13-3.29-23.17-9.53-34.2-12.75-22.52-37.56-31-53-36.17a143.82,143.82,0,0,0-38-6.89,156,156,0,0,0-36,2.58c-9.83,1.73-22.95,4.12-38,11.2-3.31,1.56-7.43,3.53-11.86,6.09-8.83,5.12-18.89,12.64-26.14,24-1.41,2.23-2.67,4.65-2.67,4.65-1.9,2.45-4.42,10-4.8,11.13-2.68,8.21,6.15,70.93,4,71.49-.54.14-2.61-3.48-9-19A53.89,53.89,0,0,1,101.5,213.87Z" transform="translate(0 0.43)"/><path class="cls-4" d="M171.47,235.68" transform="translate(0 0.43)"/><path class="cls-5" d="M348,343.18" transform="translate(0 0.43)"/><path class="cls-6" d="M133.17,236.21c-.76-1.46,14.35-16.65,34.68-16.65,11.41,0,20.32,4.78,23.71,7.94a26.57,26.57,0,0,1,4.76,6.19c.8,1.42,2.51,4.46,1.8,5.08s-3.71-2.85-9.79-5.39a41.79,41.79,0,0,0-8.92-2.35,68.44,68.44,0,0,0-10.95-1.43,62.38,62.38,0,0,0-15.07,1.4C139.4,233.65,133.61,237.05,133.17,236.21Z" transform="translate(0 0.43)"/><path class="cls-3" d="M314.39,207.68c-1.59,1.27-5.58-4.47-14-7-2.72-.82-7.41-1.76-26,3s-26,8.76-35,5c-1.8-.76-4.91-2.06-5-4-.06-1.4,1.38-4.56,36-13,24.45-6,29.42-5.78,34-3C313.06,193.92,316.44,206,314.39,207.68Z" transform="translate(0 0.43)"/><path class="cls-6" d="M307.19,236.21c.76-1.46-14.35-16.65-34.68-16.65-11.41,0-20.32,4.78-23.71,7.94a26.85,26.85,0,0,0-4.76,6.19c-.8,1.42-2.51,4.46-1.8,5.08s3.71-2.85,9.79-5.39A41.79,41.79,0,0,1,261,231a68.44,68.44,0,0,1,10.95-1.43A62.38,62.38,0,0,1,287,231C301,233.65,306.75,237.05,307.19,236.21Z" transform="translate(0 0.43)"/><path class="cls-7" d="M198,282h42c-1,1.29-8.07,9.56-20,10C206.88,292.48,198.9,283.1,198,282Z" transform="translate(0 0.43)"/><path class="cls-3" d="M57.5,236.5" transform="translate(0 0.43)"/><path class="cls-8" d="M232.81,350H209.19a23.28,23.28,0,0,1-13.75-4.83,22.59,22.59,0,0,1-2.65-2.44c-5.28-5.72-6.48-13.53-6.79-17.55h0a6,6,0,0,1,5.78-6.18h58.44a6,6,0,0,1,5.78,6.18h0C256,338.89,245.62,350,232.81,350Z" transform="translate(0 0.43)"/><path class="cls-9" d="M194.74,319.43h52.51a.74.74,0,0,1,.74.74v.1a9.16,9.16,0,0,1-9.16,9.16H203.16a9.16,9.16,0,0,1-9.16-9.16v-.1A.74.74,0,0,1,194.74,319.43Z"/><path class="cls-9" d="M238.84,340H203.16a9.15,9.15,0,0,0-8.09,4.87l.37.3A23.28,23.28,0,0,0,209.19,350h23.62a22.16,22.16,0,0,0,14.12-5.13A9.15,9.15,0,0,0,238.84,340Z" transform="translate(0 0.43)"/><path class="cls-2" d="M186,376.43H256a0,0,0,0,1,0,0v33a30,30,0,0,1-30,30H216a30,30,0,0,1-30-30v-33A0,0,0,0,1,186,376.43Z"/><path class="cls-10" d="M186,390a138.71,138.71,0,0,0,70,1v6a105,105,0,0,1-70,0Z" transform="translate(0 0.43)"/><path class="cls-11" d="M219.25,508.5c59.13,0,112.75-24,152-63L313.62,413.7a9.73,9.73,0,0,0-5.76-1.13,10.52,10.52,0,0,0-1.12-.07H257.29c-.74,5.62-16.87,10.11-36.65,10.11S184.75,418.12,184,412.5H134.1c-.31,0-.6,0-.9.05s-.74-.05-1.11-.05h0a9.82,9.82,0,0,0-4.41,1.2L68.25,446.5C107.41,484.89,160.63,508.5,219.25,508.5Z" transform="translate(0 0.43)"/></svg>