<?xml version="1.0" encoding="utf-8"?>
<!-- Generator: Adobe Illustrator 24.0.1, SVG Export Plug-In . SVG Version: 6.00 Build 0)  -->
<svg version="1.1"
	 id="Layer_1" shape-rendering="geometricPrecision" text-rendering="geometricPrecision" image-rendering="optimizeQuality"
	 xmlns="http://www.w3.org/2000/svg" xmlns:xlink="http://www.w3.org/1999/xlink" x="0px" y="0px" viewBox="0 0 8192 8192"
	 style="enable-background:new 0 0 8192 8192;" xml:space="preserve">
<style type="text/css">
	.st0{fill-rule:evenodd;clip-rule:evenodd;fill:#F15A24;}
</style>
<path class="st0" d="M4096,0c2262.2,0,4096,1833.8,4096,4096S6358.2,8192,4096,8192S0,6358.2,0,4096S1833.8,0,4096,0z
	 M3648.2,3413.2h710.2v364.1l10.3,0c98.9-177.4,340.7-364.1,701.4-364.1c749.9,0,888.6,466.7,888.6,1073.8v1236.7l-740.6,0V4627.4
	c0-261.3-5.4-597.7-385.1-597.7c-385.6,0-444.7,284.5-444.7,578.7v1115.3h-740L3648.2,3413.2L3648.2,3413.2z M3134.8,2771.5
	c0,212.6-172.5,385.1-385.1,385.1c-212.6,0-385.2-172.5-385.2-385.1c0-212.6,172.6-385.1,385.2-385.1
	C2962.3,2386.4,3134.8,2558.9,3134.8,2771.5z M2364.5,3413.2h770.3v2310.5h-770.3V3413.2z"/>
</svg>
