<?xml version="1.0" encoding="utf-8"?>
<!-- Generator: Adobe Illustrator 24.0.1, SVG Export Plug-In . SVG Version: 6.00 Build 0)  -->
<svg version="1.1" id="Layer_1" xmlns="http://www.w3.org/2000/svg" xmlns:xlink="http://www.w3.org/1999/xlink" x="0px" y="0px"
	 viewBox="0 0 1920 1080" style="enable-background:new 0 0 1920 1080;" xml:space="preserve">
<style type="text/css">
	.st0{opacity:0.43;fill:#384B61;}
	.st1{opacity:0.24;fill:#384B61;}
	.st2{fill:#384B61;}
</style>
<g id="Background">
	<path class="st0" d="M0,684.8c205.1,1.7,291.8,63.6,332.5,122.4c25,36.1,27.4,63.5,64,94.3c74.6,62.8,180,46.1,256,32.8
		c76.8-13.3,131.3-37,237-83.7c182.2-80.5,204.3-112.3,276-114.4c113.1-3.3,149.2,79.4,239,104.9c95.2,27,252.6-5.8,516-312.6
		c-0.2,183.5-0.3,367-0.5,550.5c-640,0-1280,0-1920,0c0-122.2,0-244.4,0-366.6C0,703.2,0,694,0,684.8z"/>
	<path class="st1" d="M0,662.2c205.1,1.8,291.8,67.2,332.5,129.4c25,38.2,27.4,67.2,64,99.7c74.6,66.4,180,48.7,256,34.7
		c76.8-14.1,131.3-39.1,237-88.5c182.2-85.1,204.3-118.8,276-121c113.1-3.5,149.2,84,239,110.9c95.2,28.5,252.6-6.1,516-330.5
		c-0.2,194-0.3,388-0.5,582c-640,0-1280,0-1920,0c0-129.2,0-258.4,0-387.6C0,681.7,0,672,0,662.2z"/>
	<path class="st2" d="M0,708c205.1,1.6,291.8,60,332.5,115.5c25,34.1,27.4,59.9,64,89c74.6,59.3,180,43.5,256,31
		c76.8-12.6,131.3-34.9,237-79c182.2-76,204.3-106,276-108c113.1-3.1,149.2,74.9,239,99c95.2,25.5,252.6-5.5,516-295
		c-0.2,173.2-0.3,346.3-0.5,519.5c-640,0-1280,0-1920,0c0-115.3,0-230.7,0-346C0,725.3,0,716.7,0,708z"/>
</g>
</svg>
