<svg id="Layer_1" data-name="Layer 1" xmlns="http://www.w3.org/2000/svg" viewBox="0 0 1920.5 583.1"><defs><style>.cls-1,.cls-2,.cls-3{fill:#384b61;}.cls-1{opacity:0.43;}.cls-1,.cls-2{isolation:isolate;}.cls-2{opacity:0.24;}</style></defs><title>background2</title><g id="Background"><path class="cls-1" d="M1920.5,395.2c-205.1-1.7-291.8-63.6-332.5-122.4-25-36.1-27.4-63.5-64-94.3-74.6-62.8-180-46.1-256-32.8-76.8,13.3-131.3,37-237,83.7C848.8,309.9,826.7,341.7,755,343.8c-113.1,3.3-149.2-79.4-239-104.9-95.2-27-252.6,5.8-516,312.6Q.3,276.25.5,1h1920V395.2Z" transform="translate(0 0)"/><path class="cls-2" d="M1920.5,417.8c-205.1-1.8-291.8-67.2-332.5-129.4-25-38.2-27.4-67.2-64-99.7-74.6-66.4-180-48.7-256-34.7-76.8,14.1-131.3,39.1-237,88.5-182.2,85.1-204.3,118.8-276,121-113.1,3.5-149.2-84-239-110.9-95.2-28.5-252.6,6.1-516,330.5q.3-291,.5-582h1920V417.8Z" transform="translate(0 0)"/><path class="cls-3" d="M1920.5,372c-205.1-1.6-291.8-60-332.5-115.5-25-34.1-27.4-59.9-64-89-74.6-59.3-180-43.5-256-31-76.8,12.6-131.3,34.9-237,79-182.2,76-204.3,106-276,108-113.1,3.1-149.2-74.9-239-99C420.8,199,263.4,230,0,519.5Q.3,259.7.5,0h1920V372Z" transform="translate(0 0)"/></g></svg>