<?xml version="1.0" encoding="utf-8"?>
<!-- Generator: Adobe Illustrator 24.0.1, SVG Export Plug-In . SVG Version: 6.00 Build 0)  -->
<svg version="1.1" id="a9b36dbd-2b99-4dbd-8257-9be34958a639"
	 xmlns="http://www.w3.org/2000/svg" xmlns:xlink="http://www.w3.org/1999/xlink" x="0px" y="0px" viewBox="0 0 336.4 408.6"
	 style="enable-background:new 0 0 336.4 408.6;" xml:space="preserve">
<style type="text/css">
	.st0{fill:#3F3D56;}
	.st1{fill:#2B7ED4;}
	.st2{fill:#2F2E41;}
	.st3{fill:#2C3B4D;}
	.st4{fill:#E6E6E6;}
	.st5{fill:#F2F2F2;}
</style>
<path class="st0" d="M168.3,384.4H47.2c-6.9,0-12.4-5.6-12.4-12.4V177.1c0-6.9,5.6-12.4,12.4-12.4h121.1V384.4z M47.2,166.6
	c-5.8,0-10.4,4.7-10.4,10.4v194.8c0,5.8,4.7,10.4,10.4,10.4h119.1V166.6H47.2z"/>
<path class="st1" d="M165.2,164.6h121.1c6.9,0,12.4,5.6,12.4,12.4v194.8c0,6.9-5.6,12.4-12.4,12.4H165.2V164.6z"/>
<rect x="76.7" y="114.2" class="st2" width="1.4" height="63.6"/>
<path class="st2" d="M77.8,115.5c-7.9,0-14.4-6.4-14.4-14.4s6.4-14.4,14.4-14.4c7.9,0,14.4,6.4,14.4,14.4c0,0,0,0,0,0
	C92.2,109.1,85.7,115.5,77.8,115.5z M77.8,88.2c-7.2,0-13,5.8-13,13s5.8,13,13,13s13-5.8,13-13C90.8,94,85,88.2,77.8,88.2L77.8,88.2
	L77.8,88.2z"/>
<rect x="216.6" y="28.7" class="st2" width="1.4" height="147"/>
<path class="st2" d="M217.7,28.7c-7.9,0-14.4-6.4-14.4-14.4S209.8,0,217.7,0c7.9,0,14.4,6.4,14.4,14.4c0,0,0,0,0,0
	C232.1,22.3,225.6,28.7,217.7,28.7z M217.7,1.4c-7.2,0-13,5.8-13,13s5.8,13,13,13s13-5.8,13-13l0,0C230.7,7.2,224.9,1.4,217.7,1.4z"
	/>
<path class="st3" d="M166.8,321.1c-25.2,0-45.5-20.4-45.5-45.5s20.4-45.5,45.5-45.5l0,0V321.1z"/>
<path class="st4" d="M166.8,230c25.2,0,45.5,20.4,45.5,45.5s-20.4,45.5-45.5,45.5V230z"/>
<path class="st0" d="M324.7,410H10.3c-6.4,0-11.6-5.2-11.6-11.6V149.9c0-6.4,5.2-11.6,11.6-11.6h314.5c6.4,0,11.6,5.2,11.6,11.6
	v248.4C336.4,404.8,331.2,410,324.7,410z M10.3,139.7c-5.7,0-10.2,4.6-10.3,10.3v248.4c0,5.7,4.6,10.2,10.3,10.3h314.5
	c5.7,0,10.2-4.6,10.3-10.3V149.9c0-5.7-4.6-10.2-10.3-10.3L10.3,139.7z"/>
<rect x="145.7" y="74" class="st2" width="1.4" height="174.8"/>
<path class="st2" d="M146.8,74.5c-7.9,0-14.4-6.4-14.4-14.4s6.4-14.4,14.4-14.4c7.9,0,14.4,6.4,14.4,14.4c0,0,0,0,0,0
	C161.2,68.1,154.7,74.5,146.8,74.5z M146.8,47.2c-7.2,0-13,5.8-13,13s5.8,13,13,13s13-5.8,13-13C159.8,53,154,47.2,146.8,47.2
	L146.8,47.2L146.8,47.2z"/>
<circle class="st1" cx="57.6" cy="364" r="9"/>
<circle class="st4" cx="278.6" cy="364" r="9"/>
<circle class="st1" cx="57.6" cy="185" r="9"/>
<circle class="st4" cx="278.6" cy="185" r="9"/>
<circle class="st5" cx="73.7" cy="106" r="13.7"/>
<circle id="mini-circle2" class="st1" cx="213.6" cy="19.1" r="13.7"/>
<circle id="mini-circle1" class="st3" cx="142.7" cy="65" r="13.7"/>
</svg>
