<?xml version="1.0" encoding="utf-8"?>
<!-- Generator: Adobe Illustrator 24.0.1, SVG Export Plug-In . SVG Version: 6.00 Build 0)  -->
<svg version="1.1" id="Layer_1" xmlns="http://www.w3.org/2000/svg" xmlns:xlink="http://www.w3.org/1999/xlink" x="0px" y="0px"
	 viewBox="0 0 166.1 167.2" style="enable-background:new 0 0 166.1 167.2;" xml:space="preserve">
<style type="text/css">
	.st0{fill:#F15A24;}
</style>
<g>
	<polygon class="st0" points="43.1,60.7 43.1,110.7 70.6,83.1 	"/>
	<path class="st0" d="M85.5,93.2c-0.7,0.6-1.7,0.6-2.5,0l-9.4-7.6L45.3,114h76.3L94.4,85.6L85.5,93.2z"/>
	<polygon class="st0" points="121.2,57.7 45.6,57.7 84.2,89.2 	"/>
	<polygon class="st0" points="124,110.9 124,60.4 97.4,83 	"/>
	<path class="st0" d="M83.5,0C37.9,0,0.9,37.5,0.9,83.7s37,83.7,82.6,83.7s82.6-37.5,82.6-83.7S129.2,0,83.5,0z M127.9,112.8
		c0,1.1-0.3,2-0.9,2.9c-0.1,0.3-0.3,0.5-0.5,0.7c-0.1,0.1-0.3,0.2-0.5,0.3c-0.9,0.7-2,1.2-3.3,1.2H44.3c-1.4,0-2.7-0.6-3.6-1.5
		c-0.9-0.9-1.5-2.2-1.5-3.6V58.9c0-1.4,0.6-2.7,1.5-3.6c0.9-0.9,2.2-1.5,3.6-1.5h78.5c1.4,0,2.7,0.6,3.6,1.5s1.5,2.2,1.5,3.6V112.8z
		"/>
</g>
</svg>
