<?xml version="1.0" encoding="utf-8"?>
<!-- Generator: Adobe Illustrator 24.0.1, SVG Export Plug-In . SVG Version: 6.00 Build 0)  -->
<svg version="1.1" id="f130f8b3-b494-408e-9d23-4781bd978d43"
	 xmlns="http://www.w3.org/2000/svg" xmlns:xlink="http://www.w3.org/1999/xlink" x="0px" y="0px" viewBox="0 0 942 745.6"
	 style="enable-background:new 0 0 942 745.6;" xml:space="preserve">
<style type="text/css">
	.st0{opacity:0.5;}
	.st1{fill:url(#SVGID_1_);}
	.st2{fill:#F2F2F2;}
	.st3{fill:#2A394A;}
	.st4{fill:#E0E0E0;}
	.st5{fill:url(#SVGID_2_);}
	.st6{fill:#FFFFFF;}
	.st7{fill:url(#SVGID_3_);}
	.st8{fill:#29ABE2;}
	.st9{fill:#535461;}
</style>
<title>fast loading</title>
<g class="st0">
	
		<linearGradient id="SVGID_1_" gradientUnits="userSpaceOnUse" x1="219.485" y1="242.62" x2="219.485" y2="748" gradientTransform="matrix(1 0 0 -1 0 748)">
		<stop  offset="0" style="stop-color:#808080;stop-opacity:0.25"/>
		<stop  offset="0.54" style="stop-color:#808080;stop-opacity:0.12"/>
		<stop  offset="1" style="stop-color:#808080;stop-opacity:0.1"/>
	</linearGradient>
	<path class="st1" d="M56.8,0h325.3c2.5,0,4.5,2,4.5,4.5v496.4c0,2.5-2,4.5-4.5,4.5H56.8c-2.5,0-4.5-2-4.5-4.5V4.5
		C52.3,2,54.3,0,56.8,0z"/>
</g>
<path class="st2" d="M61.1,3.7h316.8c2.5,0,4.5,2,4.5,4.5v486.2c0,2.5-2,4.5-4.5,4.5H61.1c-2.5,0-4.5-2-4.5-4.5V8.2
	C56.6,5.7,58.6,3.7,61.1,3.7z"/>
<g>
	<path class="st3" d="M93.7,94.9h56.2c2.5,0,4.5,2,4.5,4.5v49.6c0,2.5-2,4.5-4.5,4.5H93.7c-2.5,0-4.5-2-4.5-4.5V99.4
		C89.2,96.9,91.2,94.9,93.7,94.9z"/>
</g>
<path class="st4" d="M176.7,94.9H347c1.6,0,2.8,1.3,2.8,2.8v0.9c0,1.6-1.3,2.8-2.8,2.8H176.7c-1.6,0-2.8-1.3-2.8-2.8v-0.9
	C173.9,96.2,175.1,94.9,176.7,94.9z"/>
<path class="st4" d="M176.7,114.5h140.6c1.6,0,2.8,1.3,2.8,2.8v0.9c0,1.6-1.3,2.8-2.8,2.8H176.7c-1.6,0-2.8-1.3-2.8-2.8v-0.9
	C173.9,115.7,175.1,114.5,176.7,114.5z"/>
<g>
	<path class="st3" d="M93.7,186.1h56.2c2.5,0,4.5,2,4.5,4.5v49.6c0,2.5-2,4.5-4.5,4.5H93.7c-2.5,0-4.5-2-4.5-4.5v-49.6
		C89.2,188.2,91.2,186.1,93.7,186.1z"/>
</g>
<path class="st4" d="M176.7,186.1H347c1.6,0,2.8,1.3,2.8,2.8v0.9c0,1.6-1.3,2.8-2.8,2.8H176.7c-1.6,0-2.8-1.3-2.8-2.8V189
	C173.9,187.4,175.1,186.1,176.7,186.1z"/>
<path class="st4" d="M176.7,205.7H347c1.6,0,2.8,1.3,2.8,2.8v0.9c0,1.6-1.3,2.8-2.8,2.8H176.7c-1.6,0-2.8-1.3-2.8-2.8v-0.9
	C173.9,206.9,175.1,205.7,176.7,205.7z"/>
<g>
	<path class="st3" d="M93.7,277.4h56.2c2.5,0,4.5,2,4.5,4.5v49.6c0,2.5-2,4.5-4.5,4.5H93.7c-2.5,0-4.5-2-4.5-4.5v-49.6
		C89.2,279.4,91.2,277.4,93.7,277.4z"/>
</g>
<path class="st4" d="M176.7,277.4H347c1.6,0,2.8,1.3,2.8,2.8v0.9c0,1.6-1.3,2.8-2.8,2.8H176.7c-1.6,0-2.8-1.3-2.8-2.8v-0.9
	C173.9,278.6,175.1,277.4,176.7,277.4z"/>
<path class="st4" d="M176.7,296.9h13.9c1.6,0,2.8,1.3,2.8,2.8v0.9c0,1.6-1.3,2.8-2.8,2.8h-13.9c-1.6,0-2.8-1.3-2.8-2.8v-0.9
	C173.9,298.2,175.1,296.9,176.7,296.9z"/>
<g class="st0">
	
		<linearGradient id="SVGID_2_" gradientUnits="userSpaceOnUse" x1="425.02" y1="288.22" x2="425.02" y2="585.28" gradientTransform="matrix(1 0 0 -1 0 748)">
		<stop  offset="0" style="stop-color:#808080;stop-opacity:0.25"/>
		<stop  offset="0.54" style="stop-color:#808080;stop-opacity:0.12"/>
		<stop  offset="1" style="stop-color:#808080;stop-opacity:0.1"/>
	</linearGradient>
	<path class="st5" d="M264.9,162.7h320.3c2.5,0,4.5,2,4.5,4.5v288.1c0,2.5-2,4.5-4.5,4.5H264.9c-2.5,0-4.5-2-4.5-4.5V167.2
		C260.4,164.7,262.4,162.7,264.9,162.7z"/>
</g>
<path class="st6" d="M270,165.7h310.7c2.5,0,4.5,2,4.5,4.5v278.7c0,2.5-2,4.5-4.5,4.5H270c-2.5,0-4.5-2-4.5-4.5V170.2
	C265.5,167.7,267.5,165.7,270,165.7z"/>
<g>
	<path class="st3" d="M301.3,227.5H361c2.5,0,4.5,2,4.5,4.5v52.8c0,2.5-2,4.5-4.5,4.5h-59.7c-2.5,0-4.5-2-4.5-4.5V232
		C296.8,229.5,298.9,227.5,301.3,227.5z"/>
</g>
<path class="st4" d="M389.1,227.5h179.5c1.6,0,3,1.3,3,3v0.9c0,1.6-1.3,3-3,3H389.1c-1.6,0-3-1.3-3-3v-0.9
	C386.1,228.9,387.5,227.5,389.1,227.5z"/>
<path class="st4" d="M389.1,248.1h179.5c1.6,0,3,1.3,3,3v0.9c0,1.6-1.3,3-3,3H389.1c-1.6,0-3-1.3-3-3v-0.9
	C386.1,249.5,387.5,248.1,389.1,248.1z"/>
<path class="st4" d="M293,322.9h275.7c1.6,0,3,1.3,3,3v0.9c0,1.6-1.3,3-3,3H293c-1.6,0-3-1.3-3-3v-0.9
	C290,324.3,291.3,322.9,293,322.9z"/>
<path class="st4" d="M293,343.5h275.7c1.6,0,3,1.3,3,3v0.9c0,1.6-1.3,3-3,3H293c-1.6,0-3-1.3-3-3v-0.9
	C290,344.9,291.3,343.5,293,343.5z"/>
<path class="st4" d="M293,371h275.7c1.6,0,3,1.3,3,3v0.9c0,1.6-1.3,3-3,3H293c-1.6,0-3-1.3-3-3V374C290,372.3,291.3,371,293,371z"/>
<path class="st4" d="M293,391.6h207c1.6,0,3,1.3,3,3v0.9c0,1.6-1.3,3-3,3H293c-1.6,0-3-1.3-3-3v-0.9
	C290,392.9,291.3,391.6,293,391.6z"/>
<g class="st0">
	
		<linearGradient id="SVGID_3_" gradientUnits="userSpaceOnUse" x1="600" y1="-76.3443" x2="600" y2="413.1294" gradientTransform="matrix(1 0 0 -1 -129 669.24)">
		<stop  offset="0" style="stop-color:#808080;stop-opacity:0.25"/>
		<stop  offset="0.54" style="stop-color:#808080;stop-opacity:0.12"/>
		<stop  offset="1" style="stop-color:#808080;stop-opacity:0.1"/>
	</linearGradient>
	<path class="st7" d="M597.6,273.9L597.6,273.9l1.2-5.2l-1.6,5.1c-42.7-11.5-86.6-17.4-130.8-17.6C148,254.2,0,535.6,0,535.6
		l301.7,159.2c0,0,37-114.7,168.4-111c9,0.2,18.1,1,27,2.4l-40,124.5c-7,10-4.6,23.9,5.4,30.9c10,7,23.9,4.6,30.9-5.4
		c0.3-0.4,0.5-0.7,0.7-1.1l0,0V735c2.1-3.4,3.2-7.2,3.3-11.2c0-0.7,0-1.3-0.1-2l28.9-129.1c86.1,26.5,112.2,102.1,112.2,102.1
		L942,543C942,543,828,336.4,597.6,273.9z"/>
</g>
<path class="st8" d="M466.4,259.2C152.2,257.4,6,535.1,6,535.1l297.8,157.1c0,0,36.5-113.3,166.3-109.6c9.1,0.2,18.3,1.1,27.3,2.4
	L596,276.8C553.8,265.3,510.2,259.4,466.4,259.2z"/>
<path class="st4" d="M596,276.8l-98.6,308.3c107.6,16.3,139,107.2,139,107.2L936,542.4C936,542.4,823.4,338.5,596,276.8z"/>
<path class="st9" d="M497.1,719l100.1-447.3L457.3,708c-7,9.9-4.8,23.5,5.1,30.6c9.9,7,23.5,4.8,30.6-5.1c0.3-0.5,0.6-0.9,0.9-1.4
	l0,0V732c2-3.3,3.2-7.1,3.2-11C497.1,720.2,497.1,719.6,497.1,719z"/>
</svg>
