<svg id="Layer_1" data-name="Layer 1" xmlns="http://www.w3.org/2000/svg" viewBox="0 0 1928.85 919.28"><defs><style>.cls-1,.cls-2,.cls-3{fill:#384b61;}.cls-1{opacity:0.43;}.cls-1,.cls-2{isolation:isolate;}.cls-2{opacity:0.24;}</style></defs><title>fills</title><path class="cls-1" d="M0,1063.57C146.87,893.78,247.84,866.51,315.23,877.7c34.55,5.74,40.55,18.3,81.27,21.8,116.19,10,154.17-84.87,268-101.46,98.58-14.36,107.4,51.33,225,50.56,77.7-.51,144.86-38.48,276-114.4,165.55-95.84,176.76-131.94,297.65-181.26,105.4-43,126.34-27.59,194-59.24,81.46-38.08,185-123,262.81-335q.42,321.5.25,643c0,79.94-.15,195.31-.25,275.25H0v-13.43Z" transform="translate(0 -158.72)"/><path class="cls-2" d="M0,1063.57c101.81-132.63,216.07-240,313.19-216.51,38.94,9.41,38.93,31.1,83.31,42.24,123.8,31.06,191.87-120.67,335.41-109.64,85.66,6.58,81.22,62.12,157.59,55.84,59.35-4.88,79-45.45,246.94-109.15,17-6.46,21.66-7.63,29.06-11.85,153-87.1,151.12-130.09,269-173.82,107.06-39.7,137.48-15,222.64-47,74.88-28.13,174.16-93.37,262.81-262.7q.36,277.47.25,554.9c0,91.89-.13,199.11-.25,291Z" transform="translate(0 -158.72)"/><path class="cls-3" d="M0,1063.57c104.61-129,194.87-161.35,260.09-165.44,54.29-3.41,64.89,14.44,136.41,12.37,31.76-.92,56.33-5.21,77.18-11.38,108.43-32.1,115.74-61,182.66-66.35,53.28-4.26,46.66,19,157.28,30.63,73.8,7.76,109.48.84,122.55-2,48.86-10.78,85.65-32.27,100.09-40.85h0c80-54.27,189-94.38,284.4-157.53,0,0,45-30.05,91.43-50.81,59-26.43,52.71-13.9,143-49,98.45-38.31,167.79-65.29,228.77-116.43,36.21-30.36,106-99.88,145-234.89q-7.11,303.21-8.6,606.42-.64,129.89-.25,259.75H0v-14.43Z" transform="translate(0 -158.72)"/></svg>