<?xml version="1.0" encoding="utf-8"?>
<!-- Generator: Adobe Illustrator 24.0.1, SVG Export Plug-In . SVG Version: 6.00 Build 0)  -->
<svg version="1.1" id="ed283abe-d35d-4870-aca9-7e129b645167"
	 xmlns="http://www.w3.org/2000/svg" xmlns:xlink="http://www.w3.org/1999/xlink" x="0px" y="0px" viewBox="0 0 400.3 270.6"
	 style="enable-background:new 0 0 400.3 270.6;" xml:space="preserve">
<style type="text/css">
	.st0{fill:#2B7ED4;}
	.st1{fill:#CCCCCC;}
</style>
<rect class="st0" width="233.6" height="157"/>
<polygon class="st1" points="2,8.3 4,8.3 4,3.3 9,3.3 9,1.3 2,1.3 "/>
<rect x="220" y="1.3" class="st1" width="12.4" height="2"/>
<rect x="170.3" y="1.3" class="st1" width="12.4" height="2"/>
<rect x="195.2" y="1.3" class="st1" width="12.4" height="2"/>
<rect x="269.6" y="1.3" class="st1" width="12.4" height="2"/>
<rect x="294.5" y="1.3" class="st1" width="12.4" height="2"/>
<rect x="244.8" y="1.3" class="st1" width="12.4" height="2"/>
<rect x="46.2" y="1.3" class="st1" width="12.4" height="2"/>
<rect x="21.4" y="1.3" class="st1" width="12.4" height="2"/>
<rect x="71.1" y="1.3" class="st1" width="12.4" height="2"/>
<rect x="120.7" y="1.3" class="st1" width="12.4" height="2"/>
<rect x="95.9" y="1.3" class="st1" width="12.4" height="2"/>
<rect x="145.5" y="1.3" class="st1" width="12.4" height="2"/>
<rect x="319.3" y="1.3" class="st1" width="12.4" height="2"/>
<polygon class="st1" points="344.1,1.3 344.1,3.3 349.1,3.3 349.1,8.3 351.1,8.3 351.1,1.3 "/>
<rect x="349.1" y="170.2" class="st1" width="2" height="12.5"/>
<rect x="349.1" y="145.3" class="st1" width="2" height="12.5"/>
<rect x="349.1" y="95.5" class="st1" width="2" height="12.5"/>
<rect x="349.1" y="45.7" class="st1" width="2" height="12.5"/>
<rect x="349.1" y="70.6" class="st1" width="2" height="12.4"/>
<rect x="349.1" y="120.4" class="st1" width="2" height="12.5"/>
<rect x="349.1" y="195.1" class="st1" width="2" height="12.5"/>
<rect x="349.1" y="20.8" class="st1" width="2" height="12.5"/>
<polygon class="st1" points="349.1,225 344.1,225 344.1,227 351.1,227 351.1,220 349.1,220 "/>
<rect x="294.5" y="225" class="st1" width="12.4" height="2"/>
<rect x="95.9" y="225" class="st1" width="12.4" height="2"/>
<rect x="46.2" y="225" class="st1" width="12.4" height="2"/>
<rect x="71.1" y="225" class="st1" width="12.4" height="2"/>
<rect x="21.4" y="225" class="st1" width="12.4" height="2"/>
<rect x="220" y="225" class="st1" width="12.4" height="2"/>
<rect x="269.6" y="225" class="st1" width="12.4" height="2"/>
<rect x="244.8" y="225" class="st1" width="12.4" height="2"/>
<rect x="319.3" y="225" class="st1" width="12.4" height="2"/>
<rect x="170.3" y="225" class="st1" width="12.4" height="2"/>
<rect x="145.5" y="225" class="st1" width="12.4" height="2"/>
<rect x="120.7" y="225" class="st1" width="12.4" height="2"/>
<rect x="195.2" y="225" class="st1" width="12.4" height="2"/>
<polygon class="st1" points="4,220 2,220 2,227 9,227 9,225 4,225 "/>
<rect x="2" y="70.6" class="st1" width="2" height="12.5"/>
<rect x="2" y="95.5" class="st1" width="2" height="12.5"/>
<rect x="2" y="20.8" class="st1" width="2" height="12.5"/>
<rect x="2" y="45.7" class="st1" width="2" height="12.5"/>
<rect x="2" y="195.1" class="st1" width="2" height="12.5"/>
<rect x="2" y="170.2" class="st1" width="2" height="12.5"/>
<rect x="2" y="145.3" class="st1" width="2" height="12.4"/>
<rect x="2" y="120.4" class="st1" width="2" height="12.5"/>
<polygon class="st0" points="399.1,258.7 397.1,258.9 398,267.2 302.7,183.3 311.1,183 311.1,181 299.1,181.4 300.2,193.3 
	302.2,193.1 301.4,184.8 396.7,268.7 388.3,269 388.3,271 400.3,270.6 "/>
<circle class="st0" cx="349.7" cy="226" r="11"/>
<circle class="st1" cx="371.1" cy="244.8" r="6"/>
<circle class="st1" cx="327.6" cy="206.5" r="6"/>
</svg>
