<?xml version="1.0" encoding="utf-8"?>
<!-- Generator: Adobe Illustrator 24.0.1, SVG Export Plug-In . SVG Version: 6.00 Build 0)  -->
<svg version="1.1" id="Layer_1" xmlns="http://www.w3.org/2000/svg" xmlns:xlink="http://www.w3.org/1999/xlink" x="0px" y="0px"
	 viewBox="0 0 90.1 90.1" style="enable-background:new 0 0 90.1 90.1;" xml:space="preserve">
<style type="text/css">
	.st0{fill:#F15A24;}
</style>
<g>
	<path class="st0" d="M29.5,37.8c-0.3-0.1-0.7-0.2-1.2-0.2c-0.5-0.1-1.1-0.1-1.8-0.1h-2v5.7c0.2,0,0.5,0,0.8,0.1c0.3,0,0.6,0,1,0
		c0.9,0,1.7-0.1,2.4-0.2s1.1-0.4,1.5-0.6c0.4-0.3,0.7-0.6,0.8-1c0.2-0.4,0.3-0.8,0.3-1.3c0-0.6-0.1-1-0.4-1.4S30.1,38.1,29.5,37.8z"
		/>
	<path class="st0" d="M45,0.1C20.2,0.1,0.1,20.2,0.1,45C0.1,69.9,20.2,90,45,90C69.9,90,90,69.9,90,45C90,20.2,69.9,0.1,45,0.1z
		 M34.2,42.8c-0.4,0.7-0.9,1.4-1.7,1.9s-1.6,0.9-2.7,1.2s-2.3,0.4-3.6,0.4c-0.3,0-0.6,0-0.9,0s-0.6,0-0.8-0.1v7.4h-3.5V34.6h5.5
		c0.9,0,1.7,0,2.4,0.1c0.7,0.1,1.3,0.2,1.8,0.4c1.3,0.4,2.3,1,3,1.9s1,2,1,3.3C34.8,41.2,34.6,42,34.2,42.8z M54.4,46.9
		c-0.2,0.9-0.6,1.7-1,2.4s-1,1.4-1.8,1.9c-0.7,0.6-1.5,1-2.5,1.4c-0.8,0.3-1.7,0.5-2.7,0.7c-1,0.2-2.2,0.2-3.4,0.2h-4.5V34.6h5
		c0.4,0,0.9,0,1.4,0c0.5,0,0.9,0.1,1.3,0.1c0.4,0.1,0.9,0.1,1.3,0.2c0.4,0.1,0.8,0.2,1.1,0.3c1,0.3,1.9,0.8,2.7,1.3
		c0.8,0.5,1.4,1.2,1.9,1.9c0.5,0.7,0.9,1.6,1.2,2.5c0.3,0.9,0.4,1.9,0.4,3C54.8,45,54.7,46,54.4,46.9z M70.5,37.5h-8.6v4.9h7.3v2.9
		h-7.3v8.2h-3.5V34.6h12.1V37.5z"/>
	<path class="st0" d="M50.2,40.2c-0.3-0.5-0.7-0.9-1.2-1.3c-0.5-0.3-1-0.6-1.6-0.9c-0.5-0.2-1.1-0.4-1.8-0.5
		c-0.7-0.1-1.4-0.1-2.2-0.1h-1.5v13.1h1.4c2,0,3.6-0.3,4.8-0.8c1-0.5,1.8-1.2,2.3-2.2s0.8-2.2,0.8-3.7c0-0.8-0.1-1.5-0.3-2.1
		S50.5,40.7,50.2,40.2z"/>
</g>
</svg>
